<mxfile host="app.diagrams.net" modified="2023-05-12T16:26:24.472Z" agent="Mozilla/5.0 (Windows NT 10.0; Win64; x64) AppleWebKit/537.36 (KHTML, like Gecko) Chrome/112.0.0.0 Safari/537.36" etag="mfkF6p1IvEceJdjdTfpi" version="21.2.4" type="device">
  <diagram name="Page-1" id="Su40rhjzdnAemwk-TnsS">
    <mxGraphModel dx="954" dy="576" grid="1" gridSize="10" guides="1" tooltips="1" connect="1" arrows="1" fold="1" page="1" pageScale="1" pageWidth="850" pageHeight="1100" math="0" shadow="0">
      <root>
        <mxCell id="0" />
        <mxCell id="1" parent="0" />
        <mxCell id="PY7XCQGiXfBTFNidy4KD-1" value="AWS Cloud" style="points=[[0,0],[0.25,0],[0.5,0],[0.75,0],[1,0],[1,0.25],[1,0.5],[1,0.75],[1,1],[0.75,1],[0.5,1],[0.25,1],[0,1],[0,0.75],[0,0.5],[0,0.25]];outlineConnect=0;gradientColor=none;html=1;whiteSpace=wrap;fontSize=12;fontStyle=0;container=1;pointerEvents=0;collapsible=0;recursiveResize=0;shape=mxgraph.aws4.group;grIcon=mxgraph.aws4.group_aws_cloud_alt;strokeColor=#232F3E;fillColor=none;verticalAlign=top;align=left;spacingLeft=30;fontColor=#232F3E;dashed=0;" vertex="1" parent="1">
          <mxGeometry x="20" y="80" width="810" height="650" as="geometry" />
        </mxCell>
        <mxCell id="PY7XCQGiXfBTFNidy4KD-42" style="edgeStyle=orthogonalEdgeStyle;rounded=0;orthogonalLoop=1;jettySize=auto;html=1;exitX=0.5;exitY=1;exitDx=0;exitDy=0;exitPerimeter=0;" edge="1" parent="1" source="PY7XCQGiXfBTFNidy4KD-2" target="PY7XCQGiXfBTFNidy4KD-11">
          <mxGeometry relative="1" as="geometry" />
        </mxCell>
        <mxCell id="PY7XCQGiXfBTFNidy4KD-2" value="Users" style="sketch=0;pointerEvents=1;shadow=0;dashed=0;html=1;strokeColor=none;labelPosition=center;verticalLabelPosition=bottom;verticalAlign=top;align=center;fillColor=#505050;shape=mxgraph.mscae.intune.user_group" vertex="1" parent="1">
          <mxGeometry x="415" y="10" width="50" height="37" as="geometry" />
        </mxCell>
        <mxCell id="PY7XCQGiXfBTFNidy4KD-3" value="Region" style="points=[[0,0],[0.25,0],[0.5,0],[0.75,0],[1,0],[1,0.25],[1,0.5],[1,0.75],[1,1],[0.75,1],[0.5,1],[0.25,1],[0,1],[0,0.75],[0,0.5],[0,0.25]];outlineConnect=0;gradientColor=none;html=1;whiteSpace=wrap;fontSize=12;fontStyle=0;container=1;pointerEvents=0;collapsible=0;recursiveResize=0;shape=mxgraph.aws4.group;grIcon=mxgraph.aws4.group_region;strokeColor=#147EBA;fillColor=none;verticalAlign=top;align=left;spacingLeft=30;fontColor=#147EBA;dashed=1;" vertex="1" parent="1">
          <mxGeometry x="50" y="120" width="750" height="590" as="geometry" />
        </mxCell>
        <mxCell id="PY7XCQGiXfBTFNidy4KD-4" value="VPC" style="points=[[0,0],[0.25,0],[0.5,0],[0.75,0],[1,0],[1,0.25],[1,0.5],[1,0.75],[1,1],[0.75,1],[0.5,1],[0.25,1],[0,1],[0,0.75],[0,0.5],[0,0.25]];outlineConnect=0;gradientColor=none;html=1;whiteSpace=wrap;fontSize=12;fontStyle=0;container=1;pointerEvents=0;collapsible=0;recursiveResize=0;shape=mxgraph.aws4.group;grIcon=mxgraph.aws4.group_vpc;strokeColor=#248814;fillColor=none;verticalAlign=top;align=left;spacingLeft=30;fontColor=#AAB7B8;dashed=0;" vertex="1" parent="1">
          <mxGeometry x="90" y="160" width="680" height="520" as="geometry" />
        </mxCell>
        <mxCell id="PY7XCQGiXfBTFNidy4KD-5" value="Availability Zone" style="fillColor=none;strokeColor=#147EBA;dashed=1;verticalAlign=top;fontStyle=0;fontColor=#147EBA;whiteSpace=wrap;html=1;" vertex="1" parent="PY7XCQGiXfBTFNidy4KD-4">
          <mxGeometry x="30" y="40" width="250" height="460" as="geometry" />
        </mxCell>
        <mxCell id="PY7XCQGiXfBTFNidy4KD-6" value="Availability Zone" style="fillColor=none;strokeColor=#147EBA;dashed=1;verticalAlign=top;fontStyle=0;fontColor=#147EBA;whiteSpace=wrap;html=1;" vertex="1" parent="PY7XCQGiXfBTFNidy4KD-4">
          <mxGeometry x="410" y="40" width="250" height="460" as="geometry" />
        </mxCell>
        <mxCell id="PY7XCQGiXfBTFNidy4KD-28" style="edgeStyle=orthogonalEdgeStyle;rounded=0;orthogonalLoop=1;jettySize=auto;html=1;entryX=1;entryY=0.5;entryDx=0;entryDy=0;" edge="1" parent="PY7XCQGiXfBTFNidy4KD-4" source="PY7XCQGiXfBTFNidy4KD-7" target="PY7XCQGiXfBTFNidy4KD-9">
          <mxGeometry relative="1" as="geometry">
            <Array as="points">
              <mxPoint x="305" y="110" />
              <mxPoint x="305" y="160" />
            </Array>
          </mxGeometry>
        </mxCell>
        <mxCell id="PY7XCQGiXfBTFNidy4KD-31" style="edgeStyle=orthogonalEdgeStyle;rounded=0;orthogonalLoop=1;jettySize=auto;html=1;" edge="1" parent="PY7XCQGiXfBTFNidy4KD-4" source="PY7XCQGiXfBTFNidy4KD-7" target="PY7XCQGiXfBTFNidy4KD-6">
          <mxGeometry relative="1" as="geometry">
            <Array as="points">
              <mxPoint x="390" y="110" />
              <mxPoint x="390" y="160" />
            </Array>
          </mxGeometry>
        </mxCell>
        <mxCell id="PY7XCQGiXfBTFNidy4KD-7" value="Application load&lt;br&gt;balancer" style="sketch=0;outlineConnect=0;fontColor=#232F3E;gradientColor=none;fillColor=#4D27AA;strokeColor=none;dashed=0;verticalLabelPosition=bottom;verticalAlign=top;align=center;html=1;fontSize=12;fontStyle=0;aspect=fixed;pointerEvents=1;shape=mxgraph.aws4.application_load_balancer;" vertex="1" parent="PY7XCQGiXfBTFNidy4KD-4">
          <mxGeometry x="330" y="90" width="40" height="40" as="geometry" />
        </mxCell>
        <mxCell id="PY7XCQGiXfBTFNidy4KD-9" value="Public subnet" style="points=[[0,0],[0.25,0],[0.5,0],[0.75,0],[1,0],[1,0.25],[1,0.5],[1,0.75],[1,1],[0.75,1],[0.5,1],[0.25,1],[0,1],[0,0.75],[0,0.5],[0,0.25]];outlineConnect=0;gradientColor=none;html=1;whiteSpace=wrap;fontSize=12;fontStyle=0;container=1;pointerEvents=0;collapsible=0;recursiveResize=0;shape=mxgraph.aws4.group;grIcon=mxgraph.aws4.group_security_group;grStroke=0;strokeColor=#248814;fillColor=#E9F3E6;verticalAlign=top;align=left;spacingLeft=30;fontColor=#248814;dashed=0;" vertex="1" parent="PY7XCQGiXfBTFNidy4KD-4">
          <mxGeometry x="30" y="80" width="250" height="160" as="geometry" />
        </mxCell>
        <mxCell id="PY7XCQGiXfBTFNidy4KD-15" value="NAT gateway 1" style="sketch=0;outlineConnect=0;fontColor=#232F3E;gradientColor=none;fillColor=#4D27AA;strokeColor=none;dashed=0;verticalLabelPosition=bottom;verticalAlign=top;align=center;html=1;fontSize=12;fontStyle=0;aspect=fixed;pointerEvents=1;shape=mxgraph.aws4.nat_gateway;" vertex="1" parent="PY7XCQGiXfBTFNidy4KD-9">
          <mxGeometry x="100" y="45" width="50" height="50" as="geometry" />
        </mxCell>
        <mxCell id="PY7XCQGiXfBTFNidy4KD-10" value="Public subnet" style="points=[[0,0],[0.25,0],[0.5,0],[0.75,0],[1,0],[1,0.25],[1,0.5],[1,0.75],[1,1],[0.75,1],[0.5,1],[0.25,1],[0,1],[0,0.75],[0,0.5],[0,0.25]];outlineConnect=0;gradientColor=none;html=1;whiteSpace=wrap;fontSize=12;fontStyle=0;container=1;pointerEvents=0;collapsible=0;recursiveResize=0;shape=mxgraph.aws4.group;grIcon=mxgraph.aws4.group_security_group;grStroke=0;strokeColor=#248814;fillColor=#E9F3E6;verticalAlign=top;align=left;spacingLeft=30;fontColor=#248814;dashed=0;" vertex="1" parent="PY7XCQGiXfBTFNidy4KD-4">
          <mxGeometry x="410" y="80" width="250" height="160" as="geometry" />
        </mxCell>
        <mxCell id="PY7XCQGiXfBTFNidy4KD-16" value="NAT gateway 2" style="sketch=0;outlineConnect=0;fontColor=#232F3E;gradientColor=none;fillColor=#4D27AA;strokeColor=none;dashed=0;verticalLabelPosition=bottom;verticalAlign=top;align=center;html=1;fontSize=12;fontStyle=0;aspect=fixed;pointerEvents=1;shape=mxgraph.aws4.nat_gateway;" vertex="1" parent="PY7XCQGiXfBTFNidy4KD-10">
          <mxGeometry x="100" y="45" width="50" height="50" as="geometry" />
        </mxCell>
        <mxCell id="PY7XCQGiXfBTFNidy4KD-14" value="" style="edgeStyle=orthogonalEdgeStyle;rounded=0;orthogonalLoop=1;jettySize=auto;html=1;" edge="1" parent="PY7XCQGiXfBTFNidy4KD-4" source="PY7XCQGiXfBTFNidy4KD-11" target="PY7XCQGiXfBTFNidy4KD-7">
          <mxGeometry relative="1" as="geometry" />
        </mxCell>
        <mxCell id="PY7XCQGiXfBTFNidy4KD-11" value="Internet gateway" style="sketch=0;outlineConnect=0;fontColor=#232F3E;gradientColor=none;fillColor=#4D27AA;strokeColor=none;dashed=0;verticalLabelPosition=bottom;verticalAlign=top;align=center;html=1;fontSize=12;fontStyle=0;aspect=fixed;pointerEvents=1;shape=mxgraph.aws4.internet_gateway;" vertex="1" parent="PY7XCQGiXfBTFNidy4KD-4">
          <mxGeometry x="330" y="10" width="40" height="40" as="geometry" />
        </mxCell>
        <mxCell id="PY7XCQGiXfBTFNidy4KD-12" value="Private subnet" style="points=[[0,0],[0.25,0],[0.5,0],[0.75,0],[1,0],[1,0.25],[1,0.5],[1,0.75],[1,1],[0.75,1],[0.5,1],[0.25,1],[0,1],[0,0.75],[0,0.5],[0,0.25]];outlineConnect=0;gradientColor=none;html=1;whiteSpace=wrap;fontSize=12;fontStyle=0;container=1;pointerEvents=0;collapsible=0;recursiveResize=0;shape=mxgraph.aws4.group;grIcon=mxgraph.aws4.group_security_group;grStroke=0;strokeColor=#147EBA;fillColor=#E6F2F8;verticalAlign=top;align=left;spacingLeft=30;fontColor=#147EBA;dashed=0;" vertex="1" parent="PY7XCQGiXfBTFNidy4KD-4">
          <mxGeometry x="30" y="300" width="250" height="200" as="geometry" />
        </mxCell>
        <mxCell id="PY7XCQGiXfBTFNidy4KD-13" value="Private subnet" style="points=[[0,0],[0.25,0],[0.5,0],[0.75,0],[1,0],[1,0.25],[1,0.5],[1,0.75],[1,1],[0.75,1],[0.5,1],[0.25,1],[0,1],[0,0.75],[0,0.5],[0,0.25]];outlineConnect=0;gradientColor=none;html=1;whiteSpace=wrap;fontSize=12;fontStyle=0;container=1;pointerEvents=0;collapsible=0;recursiveResize=0;shape=mxgraph.aws4.group;grIcon=mxgraph.aws4.group_security_group;grStroke=0;strokeColor=#147EBA;fillColor=#E6F2F8;verticalAlign=top;align=left;spacingLeft=30;fontColor=#147EBA;dashed=0;" vertex="1" parent="PY7XCQGiXfBTFNidy4KD-4">
          <mxGeometry x="410" y="300" width="250" height="200" as="geometry" />
        </mxCell>
        <mxCell id="PY7XCQGiXfBTFNidy4KD-19" value="EC2" style="sketch=0;points=[[0,0,0],[0.25,0,0],[0.5,0,0],[0.75,0,0],[1,0,0],[0,1,0],[0.25,1,0],[0.5,1,0],[0.75,1,0],[1,1,0],[0,0.25,0],[0,0.5,0],[0,0.75,0],[1,0.25,0],[1,0.5,0],[1,0.75,0]];outlineConnect=0;fontColor=#232F3E;gradientColor=#F78E04;gradientDirection=north;fillColor=#D05C17;strokeColor=#ffffff;dashed=0;verticalLabelPosition=bottom;verticalAlign=top;align=center;html=1;fontSize=12;fontStyle=0;aspect=fixed;shape=mxgraph.aws4.resourceIcon;resIcon=mxgraph.aws4.ec2;" vertex="1" parent="PY7XCQGiXfBTFNidy4KD-4">
          <mxGeometry x="462" y="390" width="48" height="48" as="geometry" />
        </mxCell>
        <mxCell id="PY7XCQGiXfBTFNidy4KD-22" value="Auto Scaling group" style="points=[[0,0],[0.25,0],[0.5,0],[0.75,0],[1,0],[1,0.25],[1,0.5],[1,0.75],[1,1],[0.75,1],[0.5,1],[0.25,1],[0,1],[0,0.75],[0,0.5],[0,0.25]];outlineConnect=0;gradientColor=none;html=1;whiteSpace=wrap;fontSize=12;fontStyle=0;container=1;pointerEvents=0;collapsible=0;recursiveResize=0;shape=mxgraph.aws4.groupCenter;grIcon=mxgraph.aws4.group_auto_scaling_group;grStroke=1;strokeColor=#D86613;fillColor=none;verticalAlign=top;align=center;fontColor=#D86613;dashed=1;spacingTop=25;" vertex="1" parent="PY7XCQGiXfBTFNidy4KD-4">
          <mxGeometry x="50" y="330" width="600" height="150" as="geometry" />
        </mxCell>
        <mxCell id="PY7XCQGiXfBTFNidy4KD-17" value="EC2" style="sketch=0;points=[[0,0,0],[0.25,0,0],[0.5,0,0],[0.75,0,0],[1,0,0],[0,1,0],[0.25,1,0],[0.5,1,0],[0.75,1,0],[1,1,0],[0,0.25,0],[0,0.5,0],[0,0.75,0],[1,0.25,0],[1,0.5,0],[1,0.75,0]];outlineConnect=0;fontColor=#232F3E;gradientColor=#F78E04;gradientDirection=north;fillColor=#D05C17;strokeColor=#ffffff;dashed=0;verticalLabelPosition=bottom;verticalAlign=top;align=center;html=1;fontSize=12;fontStyle=0;aspect=fixed;shape=mxgraph.aws4.resourceIcon;resIcon=mxgraph.aws4.ec2;" vertex="1" parent="PY7XCQGiXfBTFNidy4KD-4">
          <mxGeometry x="82" y="390" width="48" height="48" as="geometry" />
        </mxCell>
        <mxCell id="PY7XCQGiXfBTFNidy4KD-18" value="EC2" style="sketch=0;points=[[0,0,0],[0.25,0,0],[0.5,0,0],[0.75,0,0],[1,0,0],[0,1,0],[0.25,1,0],[0.5,1,0],[0.75,1,0],[1,1,0],[0,0.25,0],[0,0.5,0],[0,0.75,0],[1,0.25,0],[1,0.5,0],[1,0.75,0]];outlineConnect=0;fontColor=#232F3E;gradientColor=#F78E04;gradientDirection=north;fillColor=#D05C17;strokeColor=#ffffff;dashed=0;verticalLabelPosition=bottom;verticalAlign=top;align=center;html=1;fontSize=12;fontStyle=0;aspect=fixed;shape=mxgraph.aws4.resourceIcon;resIcon=mxgraph.aws4.ec2;" vertex="1" parent="PY7XCQGiXfBTFNidy4KD-4">
          <mxGeometry x="180" y="390" width="48" height="48" as="geometry" />
        </mxCell>
        <mxCell id="PY7XCQGiXfBTFNidy4KD-20" value="EC2" style="sketch=0;points=[[0,0,0],[0.25,0,0],[0.5,0,0],[0.75,0,0],[1,0,0],[0,1,0],[0.25,1,0],[0.5,1,0],[0.75,1,0],[1,1,0],[0,0.25,0],[0,0.5,0],[0,0.75,0],[1,0.25,0],[1,0.5,0],[1,0.75,0]];outlineConnect=0;fontColor=#232F3E;gradientColor=#F78E04;gradientDirection=north;fillColor=#D05C17;strokeColor=#ffffff;dashed=0;verticalLabelPosition=bottom;verticalAlign=top;align=center;html=1;fontSize=12;fontStyle=0;aspect=fixed;shape=mxgraph.aws4.resourceIcon;resIcon=mxgraph.aws4.ec2;" vertex="1" parent="PY7XCQGiXfBTFNidy4KD-4">
          <mxGeometry x="560" y="390" width="48" height="48" as="geometry" />
        </mxCell>
        <mxCell id="PY7XCQGiXfBTFNidy4KD-27" style="edgeStyle=orthogonalEdgeStyle;rounded=0;orthogonalLoop=1;jettySize=auto;html=1;" edge="1" parent="PY7XCQGiXfBTFNidy4KD-4" source="PY7XCQGiXfBTFNidy4KD-15" target="PY7XCQGiXfBTFNidy4KD-22">
          <mxGeometry relative="1" as="geometry">
            <Array as="points">
              <mxPoint x="155" y="290" />
              <mxPoint x="350" y="290" />
            </Array>
          </mxGeometry>
        </mxCell>
        <mxCell id="PY7XCQGiXfBTFNidy4KD-43" value="" style="sketch=0;outlineConnect=0;fontColor=#232F3E;gradientColor=none;fillColor=#4D27AA;strokeColor=none;dashed=0;verticalLabelPosition=bottom;verticalAlign=top;align=center;html=1;fontSize=12;fontStyle=0;aspect=fixed;pointerEvents=1;shape=mxgraph.aws4.route_table;" vertex="1" parent="PY7XCQGiXfBTFNidy4KD-4">
          <mxGeometry x="322" y="236.60999999999999" width="48" height="46.77" as="geometry" />
        </mxCell>
        <mxCell id="PY7XCQGiXfBTFNidy4KD-34" style="edgeStyle=orthogonalEdgeStyle;rounded=0;orthogonalLoop=1;jettySize=auto;html=1;" edge="1" parent="PY7XCQGiXfBTFNidy4KD-4" source="PY7XCQGiXfBTFNidy4KD-16" target="PY7XCQGiXfBTFNidy4KD-22">
          <mxGeometry relative="1" as="geometry">
            <mxPoint x="534.5" y="182.5" as="sourcePoint" />
            <mxPoint x="534.5" y="337.5" as="targetPoint" />
            <Array as="points">
              <mxPoint x="535" y="290" />
              <mxPoint x="350" y="290" />
            </Array>
          </mxGeometry>
        </mxCell>
        <mxCell id="PY7XCQGiXfBTFNidy4KD-23" value="Security group" style="fillColor=none;strokeColor=#DD3522;verticalAlign=top;fontStyle=0;fontColor=#DD3522;whiteSpace=wrap;html=1;" vertex="1" parent="1">
          <mxGeometry x="150" y="540" width="580" height="80" as="geometry" />
        </mxCell>
        <mxCell id="PY7XCQGiXfBTFNidy4KD-36" style="edgeStyle=orthogonalEdgeStyle;rounded=0;orthogonalLoop=1;jettySize=auto;html=1;" edge="1" parent="1" source="PY7XCQGiXfBTFNidy4KD-35">
          <mxGeometry relative="1" as="geometry">
            <mxPoint x="670" y="620" as="targetPoint" />
            <Array as="points">
              <mxPoint x="435" y="710" />
              <mxPoint x="671" y="710" />
            </Array>
          </mxGeometry>
        </mxCell>
        <mxCell id="PY7XCQGiXfBTFNidy4KD-38" style="edgeStyle=orthogonalEdgeStyle;rounded=0;orthogonalLoop=1;jettySize=auto;html=1;entryX=0.74;entryY=1.031;entryDx=0;entryDy=0;entryPerimeter=0;" edge="1" parent="1" source="PY7XCQGiXfBTFNidy4KD-35" target="PY7XCQGiXfBTFNidy4KD-23">
          <mxGeometry relative="1" as="geometry">
            <mxPoint x="580" y="630" as="targetPoint" />
            <Array as="points">
              <mxPoint x="435" y="710" />
              <mxPoint x="579" y="710" />
            </Array>
          </mxGeometry>
        </mxCell>
        <mxCell id="PY7XCQGiXfBTFNidy4KD-39" style="edgeStyle=orthogonalEdgeStyle;rounded=0;orthogonalLoop=1;jettySize=auto;html=1;" edge="1" parent="1" source="PY7XCQGiXfBTFNidy4KD-35">
          <mxGeometry relative="1" as="geometry">
            <mxPoint x="190" y="620" as="targetPoint" />
            <Array as="points">
              <mxPoint x="435" y="710" />
              <mxPoint x="190" y="710" />
            </Array>
          </mxGeometry>
        </mxCell>
        <mxCell id="PY7XCQGiXfBTFNidy4KD-40" style="edgeStyle=orthogonalEdgeStyle;rounded=0;orthogonalLoop=1;jettySize=auto;html=1;exitX=0.5;exitY=0;exitDx=0;exitDy=0;exitPerimeter=0;entryX=0.25;entryY=1;entryDx=0;entryDy=0;" edge="1" parent="1" source="PY7XCQGiXfBTFNidy4KD-35" target="PY7XCQGiXfBTFNidy4KD-23">
          <mxGeometry relative="1" as="geometry">
            <Array as="points">
              <mxPoint x="435" y="710" />
              <mxPoint x="295" y="710" />
            </Array>
          </mxGeometry>
        </mxCell>
        <mxCell id="PY7XCQGiXfBTFNidy4KD-35" value="S3 bucket" style="sketch=0;points=[[0,0,0],[0.25,0,0],[0.5,0,0],[0.75,0,0],[1,0,0],[0,1,0],[0.25,1,0],[0.5,1,0],[0.75,1,0],[1,1,0],[0,0.25,0],[0,0.5,0],[0,0.75,0],[1,0.25,0],[1,0.5,0],[1,0.75,0]];outlineConnect=0;fontColor=#232F3E;gradientColor=#60A337;gradientDirection=north;fillColor=#277116;strokeColor=#ffffff;dashed=0;verticalLabelPosition=bottom;verticalAlign=top;align=center;html=1;fontSize=12;fontStyle=0;aspect=fixed;shape=mxgraph.aws4.resourceIcon;resIcon=mxgraph.aws4.s3;" vertex="1" parent="1">
          <mxGeometry x="405" y="750" width="60" height="60" as="geometry" />
        </mxCell>
      </root>
    </mxGraphModel>
  </diagram>
</mxfile>
